<svg version="1.0" xmlns="http://www.w3.org/2000/svg" width="130.667" height="130.667" viewBox="0 0 98 98">
  <path fill="white" d="M0 49v49h98V0H0zm89 0v39H10V10h79z"/>
  <path fill="white" d="M23.7 23.7c-.4.3-.7 5.5-.7 11.5V46h3.4c3.3 0 3.5-.2 3.8-3.8s.4-3.7 4.6-4l4.2-.3v4c0 4 .1 4.1 3.5 4.1s3.5-.1 3.5-3.8c0-2.9-.7-4.5-3-6.7-3.8-3.6-3.8-4.5.1-4.5 2.9 0 3-.2 2.7-3.8-.3-3.4-.6-3.7-3.3-3.7s-3 .3-3.3 3.7c-.3 3.8-.4 3.8-4.8 3.8H30v-4c0-3.7-.2-4-2.8-4-1.6 0-3.2.3-3.5.7m29.7.7c-.3.8-.4 2.5-.2 3.7.2 1.8.9 2.3 3.3 2.4 2.8 0 3 .3 3.3 4.2l.3 4.3h-3.5c-3.4 0-3.6.2-3.6 3.5V46h22v-3.5c0-3.4-.1-3.5-4-3.5h-4v-5.5c0-4.8-.4-6-2.6-8-3.1-2.9-10.1-3.5-11-1.1M23 61.8c0 8 .2 9.1 2.3 11 2 1.9 3.5 2.2 11.5 2.2H46v-7H30V53h-7zm16-5.3c0 3.3.2 3.5 3.5 3.5s3.5-.2 3.5-3.5-.2-3.5-3.5-3.5-3.5.2-3.5 3.5m20.6-1.9c-.3.9-.6 2.4-.6 3.5 0 1.4-.7 1.9-3 1.9-3 0-3 0-3 5.8 0 7.6 1.6 9.2 9.3 9.2H68v-3.5c0-3.3.2-3.5 3.5-3.5H75v-5.3c0-7.2-2.5-9.7-9.7-9.7-3.7 0-5.2.4-5.7 1.6M68 64v4h-8v-8h8z"/>
</svg>