<svg version="1.1" id="Layer_1" xmlns="http://www.w3.org/2000/svg" xmlns:xlink="http://www.w3.org/1999/xlink" x="0px" y="0px"
	 width="100%" viewBox="0 0 471 481" enable-background="new 0 0 471 481" xml:space="preserve">
<path fill="#000000" opacity="1.000000" stroke="none" 
	d="
M218.000000,482.000000 
	C145.352280,482.000000 73.204559,482.000000 1.028422,482.000000 
	C1.028422,321.727722 1.028422,161.455429 1.028422,1.091567 
	C157.897690,1.091567 314.795441,1.091567 471.846619,1.091567 
	C471.846619,161.333221 471.846619,321.666595 471.846619,482.000000 
	C387.455475,482.000000 302.977753,482.000000 218.000000,482.000000 
M45.908379,209.420746 
	C44.939167,212.294098 43.110924,215.185455 43.170704,218.037247 
	C43.317596,225.044632 43.531410,232.232147 45.199753,238.980988 
	C47.367474,247.749924 50.297657,256.475922 54.095757,264.665680 
	C61.772465,281.218872 73.328812,295.324036 86.596428,307.480133 
	C99.818184,319.594238 114.011787,330.965363 129.053009,340.692719 
	C146.511627,351.983429 165.345688,361.150452 183.620285,371.170746 
	C185.162338,372.016266 186.988464,372.343750 190.127045,373.396332 
	C187.692856,370.170929 186.280121,368.197357 184.763199,366.307465 
	C179.491043,359.738922 174.142288,353.231567 168.901947,346.637939 
	C165.186691,341.963226 161.939728,336.869446 157.885101,332.520935 
	C149.044083,323.039032 141.905273,312.555969 136.897400,300.583374 
	C132.906281,291.041565 130.741608,281.291595 132.536209,270.919647 
	C135.301239,254.939163 145.632217,244.169998 158.480911,236.132141 
	C172.083694,227.622528 186.342606,219.992828 200.877594,213.179047 
	C227.563766,200.669006 255.810501,192.381577 284.287628,185.097794 
	C304.898895,179.825867 325.675629,175.119156 346.526215,170.887878 
	C366.792114,166.775269 387.244171,163.578751 407.618683,160.003815 
	C412.726532,159.107605 417.850464,158.302933 422.966980,157.456177 
	C421.078430,155.941742 419.258728,155.235275 417.385986,155.041794 
	C406.937500,153.962402 396.476166,153.007126 386.019226,152.009491 
	C368.532318,150.341187 351.057617,148.528717 333.554749,147.049484 
	C319.111542,145.828842 304.646515,144.762115 290.169952,144.070969 
	C276.420715,143.414520 262.643768,143.061844 248.879410,143.073044 
	C233.781265,143.085327 218.681992,143.609879 203.586456,144.028229 
	C197.650116,144.192764 191.673599,144.304626 185.800369,145.082321 
	C169.777405,147.204010 153.772659,149.497742 137.810959,152.038895 
	C117.944099,155.201782 98.816948,160.962540 81.076263,170.540085 
	C65.119499,179.154572 52.198273,190.871475 45.908379,209.420746 
z"/>
<path fill="#FF6C0C" opacity="1.000000" stroke="none" 
	d="
M45.951591,209.020203 
	C52.198273,190.871475 65.119499,179.154572 81.076263,170.540085 
	C98.816948,160.962540 117.944099,155.201782 137.810959,152.038895 
	C153.772659,149.497742 169.777405,147.204010 185.800369,145.082321 
	C191.673599,144.304626 197.650116,144.192764 203.586456,144.028229 
	C218.681992,143.609879 233.781265,143.085327 248.879410,143.073044 
	C262.643768,143.061844 276.420715,143.414520 290.169952,144.070969 
	C304.646515,144.762115 319.111542,145.828842 333.554749,147.049484 
	C351.057617,148.528717 368.532318,150.341187 386.019226,152.009491 
	C396.476166,153.007126 406.937500,153.962402 417.385986,155.041794 
	C419.258728,155.235275 421.078430,155.941742 422.966980,157.456177 
	C417.850464,158.302933 412.726532,159.107605 407.618683,160.003815 
	C387.244171,163.578751 366.792114,166.775269 346.526215,170.887878 
	C325.675629,175.119156 304.898895,179.825867 284.287628,185.097794 
	C255.810501,192.381577 227.563766,200.669006 200.877594,213.179047 
	C186.342606,219.992828 172.083694,227.622528 158.480911,236.132141 
	C145.632217,244.169998 135.301239,254.939163 132.536209,270.919647 
	C130.741608,281.291595 132.906281,291.041565 136.897400,300.583374 
	C141.905273,312.555969 149.044083,323.039032 157.885101,332.520935 
	C161.939728,336.869446 165.186691,341.963226 168.901947,346.637939 
	C174.142288,353.231567 179.491043,359.738922 184.763199,366.307465 
	C186.280121,368.197357 187.692856,370.170929 190.127045,373.396332 
	C186.988464,372.343750 185.162338,372.016266 183.620285,371.170746 
	C165.345688,361.150452 146.511627,351.983429 129.053009,340.692719 
	C114.011787,330.965363 99.818184,319.594238 86.596428,307.480133 
	C73.328812,295.324036 61.772465,281.218872 54.095757,264.665680 
	C50.297657,256.475922 47.367474,247.749924 45.199753,238.980988 
	C43.531410,232.232147 43.317596,225.044632 43.170704,218.037247 
	C43.110924,215.185455 44.939167,212.294098 45.951591,209.020203 
z"/>
</svg>